<svg width="418" height="591" viewBox="0 0 418 591" fill="none" xmlns="http://www.w3.org/2000/svg">
<path d="M374.44 485.248L209 589.156L42.2772 489.866L2.52026 344.395L69.2094 370.949L62.797 354.786L73.0568 282.051L135.899 219.706L126.921 156.207L209 1.5V143.507L262.864 198.925L260.299 224.324L315.446 156.207L350.073 357.095L356.486 329.386L415.48 299.369L374.44 485.248Z" fill="white" stroke="white" stroke-width="2.30906"/>
<path d="M161.573 405.579L103.861 381.334L123.098 405.579C118.396 426.361 121.559 473.696 171.833 496.787C222.106 519.878 268.019 487.166 284.691 467.924L329.578 469.078L259.042 443.679C211.59 510.641 157.725 448.297 165.42 454.069C173.115 459.842 197.482 445.988 183.375 430.979C172.089 418.972 159.863 424.436 155.16 428.67L161.573 405.579Z" fill="#101014" stroke="#101014" stroke-width="2.30906"/>
</svg>
